<svg width="100" height="100" viewBox="0 0 100 100" fill="none" xmlns="http://www.w3.org/2000/svg">
<path d="M38.3481 40.2601C36.8921 37.3905 35.6057 34.5015 34.4962 31.5939C33.7039 29.5194 33.1697 27.4759 32.8946 25.4679C32.75 24.4096 32.88 23.4809 33.2839 22.6893C33.8209 21.6365 35.1272 21.1435 36.292 21.3026C38.9358 21.6671 39.9327 23.7092 40.1339 26.2337C40.3642 29.1379 40.4607 31.098 40.429 32.1176C40.3642 34.36 40.3587 36.0845 40.4215 37.289C40.5349 39.4981 41.2303 41.5172 42.5043 43.3518C42.5816 43.4645 42.6149 43.4541 42.6004 43.3144C42.2837 40.369 42.5862 37.4871 43.5116 34.675C44.0505 33.0347 45.5379 30.3858 47.5528 30.1497C49.41 29.9323 50.5722 31.6793 50.6124 33.3856C50.6377 34.3939 50.4674 35.4134 50.1063 36.443C49.2461 38.8909 48.5025 41.1294 47.8802 43.1574C47.1258 45.6085 46.8822 48.08 47.1439 50.5685C47.1757 50.8497 47.2807 51.118 47.458 51.3689C48.3562 52.6232 49.2234 53.8277 50.0577 54.9852C50.1817 55.1535 50.232 55.1342 50.2102 54.9246C49.9061 51.7829 50.424 48.7251 51.7641 45.7513C52.1299 44.9401 52.6591 44.2521 53.3514 43.687C54.3597 42.8575 56.128 42.4396 57.3221 43.217C57.622 43.4122 57.955 43.5661 58.1481 43.8729C58.6952 44.739 58.8264 45.6621 58.54 46.6451C58.1672 47.9138 57.6552 49.4474 57.004 51.246C56.2034 53.4457 55.7851 55.5678 55.7457 57.6179C55.7215 58.9269 55.9695 60.3757 56.4864 61.9699C56.6316 62.4052 56.8664 62.7759 57.199 63.0874C57.8587 63.7069 58.4742 64.2916 59.0422 64.8473C59.2553 65.0586 59.322 65.0186 59.238 64.7286C58.5987 62.5361 58.4092 60.4074 58.6649 58.3434C58.9085 56.3683 60.3253 54.369 62.5098 54.7293C64.7916 55.1068 65.1551 58.2272 64.8958 60.0079C64.6429 61.7657 64.3915 63.5398 64.1418 65.3302C63.9536 66.712 64.0788 68.1163 64.5184 69.5477C64.6305 69.905 64.8477 70.2227 65.1644 70.4975C66.1473 71.3495 67.0347 72.1816 67.8311 72.9925C68.854 74.0307 67.3672 75.4908 66.3268 74.5189C65.2854 73.5425 64.2991 72.6268 63.3715 71.7662C62.8943 71.3201 62.4316 71.0136 61.9879 70.8458C61.6087 70.6983 61.2381 70.5368 60.8795 70.3557C58.8098 69.3114 56.3901 69.6807 54.2063 70.0481C51.8145 70.4537 47.7644 69.6205 48.7015 66.3307C49.3653 64.0088 52.4413 63.5104 54.5864 63.6964C54.7225 63.7066 54.7437 63.6657 54.6443 63.5703C53.9604 62.8898 53.3517 62.0552 52.5014 61.5961C50.4144 60.4796 48.2077 59.948 45.8815 60.0012C44.1397 60.0429 42.3619 60.074 40.5493 60.0993C39.5878 60.1108 38.5699 59.957 37.4938 59.6404C35.0631 58.9216 34.0514 56.5896 35.387 54.4212C36.3472 52.8657 38.0183 52.3112 39.7784 52.3654C42.2655 52.4454 44.5858 53.112 46.7447 54.3687C46.9536 54.4927 46.9877 54.4559 46.8442 54.2565C45.9232 52.9766 45.0317 51.661 44.1772 50.3103C43.9424 49.9395 43.6442 49.6222 43.2779 49.3594C42.6342 48.896 42.0376 48.469 41.485 48.0768C38.7776 46.1571 35.6001 46.0546 32.457 45.5691C30.5381 45.2714 28.1373 44.4285 27.2374 42.6805C26.2494 40.7748 27.6847 39.2793 29.3806 38.59C32.82 37.1904 35.3955 38.3135 38.259 40.3364C38.391 40.4288 38.4211 40.4049 38.3481 40.2601ZM38.2507 33.2427C38.2349 30.7548 38.1338 28.3685 37.9463 26.0794C37.8811 25.2621 37.6362 24.5811 37.2156 24.0425C36.8016 23.512 36.21 23.3344 35.4463 23.5132C35.2765 23.5516 35.1748 23.6548 35.1395 23.8256C35.0427 24.2666 35.0172 24.7166 35.0597 25.1814C35.1313 25.9756 35.2864 26.8095 35.5267 27.6802C36.1885 30.0558 37.0428 32.3684 38.0857 34.6118C38.1614 34.7774 38.2048 34.7693 38.216 34.5876C38.2396 34.1595 38.2532 33.7099 38.2507 33.2427ZM38.2036 43.0348C36.7998 41.9212 35.5913 41.1234 34.5673 40.6464C32.9172 39.8783 31.2825 39.9586 29.6604 40.8856C29.5037 40.9782 29.3569 41.0922 29.2228 41.2295C29.1376 41.312 29.0978 41.4146 29.0979 41.534C29.0996 41.6505 29.1409 41.7527 29.228 41.8368C29.5622 42.1646 29.8891 42.5419 30.3283 42.7108C31.4742 43.1585 32.7046 43.4618 34.0197 43.6206C36.001 43.8603 38.0785 44.1127 39.9303 44.7964C40.0144 44.8287 40.0917 44.8722 40.1587 44.9325C40.2151 44.9786 40.2846 45.0096 40.3633 45.0193C40.4752 45.0378 40.4912 45.0053 40.4081 44.9274C39.7663 44.3227 39.0296 43.6907 38.2036 43.0348ZM47.2376 38.1112C47.7111 36.7849 48.1824 35.5188 48.4206 34.1369C48.5259 33.5125 48.4258 32.9471 48.1203 32.4406C48.0775 32.3721 48.0211 32.326 47.9447 32.3061C47.8673 32.2818 47.7946 32.2873 47.7222 32.3238C47.3039 32.5294 46.9447 32.8521 46.6453 33.2844C45.7618 34.5637 45.1805 36.1665 44.8985 38.0911C44.5552 40.4554 44.6068 42.8345 45.0562 45.2301C45.0605 45.2482 45.07 45.2578 45.0892 45.258C45.1038 45.2592 45.1162 45.2515 45.1237 45.233C45.6799 42.8605 46.3836 40.486 47.2376 38.1112ZM47.9478 57.6953C45.332 55.7895 42.2496 54.3252 38.9817 54.5714C37.8981 54.6505 37.2311 55.2118 36.9796 56.2508C36.5773 57.9132 40.5449 57.9761 41.5787 57.9281C43.8891 57.819 45.9903 57.8127 47.8756 57.9013C48.1293 57.9143 48.153 57.8441 47.9478 57.6953ZM56.3762 46.4206C56.5115 46.0301 56.5392 45.6392 56.4605 45.2523C56.4405 45.1593 56.3882 45.1003 56.2978 45.0719C55.1302 44.7225 54.2296 45.6025 53.7686 46.594C52.0774 50.2417 51.6877 54.9251 53.4417 58.6468C53.5626 58.9017 53.6168 58.8887 53.5957 58.6026C53.4483 56.3611 53.8639 53.7909 54.6181 51.5475C55.215 49.781 55.7995 48.0724 56.3762 46.4206ZM54.8727 67.747C56.0704 67.5068 57.2962 67.4532 58.5048 67.566C58.6381 67.5746 58.6496 67.5431 58.54 67.4645C58.0876 67.1412 57.621 67.0171 57.1451 66.7449C55.4081 65.7543 53.5969 65.5572 51.7126 66.1582C51.3627 66.271 51.0715 66.4698 50.8455 66.7509C50.7909 66.8213 50.7547 66.8992 50.7371 66.9846C50.7177 67.0728 50.7192 67.1584 50.7443 67.243C50.7649 67.3288 50.8042 67.4029 50.8632 67.4698C50.9223 67.5368 50.9916 67.5869 51.073 67.6175C52.2882 68.1154 53.5663 68.0014 54.8727 67.747ZM61.7571 56.9198C59.8964 58.0355 60.937 63.079 61.5225 64.8692C61.6283 65.1802 61.7246 65.4817 61.8143 65.7752C61.8645 65.9445 61.8989 65.9386 61.9179 65.7694C62.0872 64.2298 62.3091 62.5917 62.5838 60.8549C62.7982 59.4931 62.9805 58.1962 62.4157 57.1076C62.3554 56.9861 62.2576 56.9069 62.1268 56.8692C61.996 56.8314 61.8737 56.8489 61.7571 56.9198Z" fill="black"/>
</svg>
