<svg width="100" height="100" viewBox="0 0 100 100" fill="none" xmlns="http://www.w3.org/2000/svg">
<path d="M42.5971 62.506C41.5488 60.5454 40.8129 59.4229 38.5519 58.9297C36.7657 58.54 34.1309 58.3446 32.6598 59.7044C31.3173 60.9454 29.661 62.6735 29.184 64.4876C28.7108 66.2871 29.1988 69.2524 30.0958 70.8635C31.9973 74.2784 37.9657 76.0702 40.8017 72.8048C42.3936 70.9719 43.6199 69.54 43.8248 67.0774C44.0217 64.7104 43.7107 62.4178 41.88 60.7783C40.6831 59.7064 38.9089 61.4685 40.1123 62.5461C42.5086 64.6921 41.2659 68.2879 39.5747 70.371C38.6322 71.5318 38.035 71.9198 36.4427 71.8718C34.432 71.8111 32.8518 71.1176 32.0761 69.1139C30.9962 66.324 31.8079 64.512 33.5543 62.381C34.5905 61.1166 35.9932 61.1469 37.4448 61.2843C39.2122 61.4516 39.69 62.3682 40.4384 63.7678C41.1987 65.1899 43.3569 63.9271 42.5971 62.506Z" fill="black"/>
<path d="M63.1983 50.4478C61.2316 50.7444 58.1073 51.0799 56.6137 52.5735C55.3313 53.8559 55.4211 55.9765 55.3283 57.6431C55.0659 62.3536 57.1789 65.559 61.9383 65.8775C65.2462 66.0989 69.5075 64.0586 69.9439 60.341C70.159 58.5086 70.3901 55.7021 69.4075 54.0061C68.1853 51.8965 66.1942 51.2313 63.8892 50.7872C62.3142 50.4837 61.6425 52.893 63.2246 53.1978C64.324 53.4097 65.2947 53.6071 66.2976 54.1511C67.7783 54.9542 67.5563 57.3255 67.5686 58.7022C67.5973 61.9046 64.7966 63.4693 61.9383 63.3775C58.0008 63.2512 57.7032 59.8883 57.8792 56.7279C57.9794 54.929 58.3862 54.2223 60.2174 53.6746C61.4196 53.315 62.6228 53.0455 63.8629 52.8585C65.4527 52.6186 64.7748 50.21 63.1983 50.4478Z" fill="black"/>
<path d="M43.5311 62.8737C43.6179 54.5433 43.7047 46.2129 43.7916 37.8825C43.8528 32.0117 49.9138 31.6638 54.4868 30.5582C59.1296 29.4357 63.8815 28.8423 68.6392 28.5026C68.2225 28.0859 67.8059 27.6693 67.3892 27.2526C67.5165 36.4181 67.6438 45.5836 67.7711 54.7491C67.7935 56.3598 70.2935 56.362 70.2711 54.7491C70.1438 45.5836 70.0165 36.4181 69.8892 27.2526C69.8803 26.6085 69.3264 25.9535 68.6392 26.0026C63.6355 26.3598 58.723 27.0694 53.8222 28.1475C50.5443 28.8685 44.4273 29.5941 41.951 32.0704C39.9482 34.0732 41.2582 41.0845 41.2315 43.6497C41.1647 50.0577 41.0979 56.4657 41.0311 62.8737C41.0143 64.4866 43.5143 64.4849 43.5311 62.8737Z" fill="black"/>
</svg>
